<?xml version="1.0" encoding="UTF-8" standalone="no"?>
<svg
   width="32"
   height="32"
   viewBox="0 0 32 32"
   fill="none"
   version="1.1"
   id="svg11"
   sodipodi:docname="exclamation.svg"
   inkscape:version="1.1.2 (0a00cf5339, 2022-02-04)"
   xmlns:inkscape="http://www.inkscape.org/namespaces/inkscape"
   xmlns:sodipodi="http://sodipodi.sourceforge.net/DTD/sodipodi-0.dtd"
   xmlns="http://www.w3.org/2000/svg"
   xmlns:svg="http://www.w3.org/2000/svg">
  <sodipodi:namedview
     id="namedview13"
     pagecolor="#ffffff"
     bordercolor="#666666"
     borderopacity="1.0"
     inkscape:pageshadow="2"
     inkscape:pageopacity="0.0"
     inkscape:pagecheckerboard="0"
     showgrid="false"
     inkscape:zoom="22.84375"
     inkscape:cx="22.435021"
     inkscape:cy="16.262654"
     inkscape:current-layer="svg11" />
  <path
     id="path2"
     style="stroke-width:1.90968;fill:#495057;fill-opacity:1"
     d="m 31.277504,16 c 0,4.051784 -1.609677,7.937809 -4.474591,10.802913 C 23.937809,29.667827 20.051784,31.277504 16,31.277504 c -4.051842,0 -7.9377329,-1.609677 -10.8028188,-4.474591 C 2.3320858,23.937809 0.72249584,20.051784 0.72249584,16 0.72249584,11.948158 2.3320858,8.0622671 5.1971812,5.1971812 8.0622671,2.3320858 11.948158,0.72249584 16,0.72249584 c 4.051784,0 7.937809,1.60958996 10.802913,4.47468536 C 29.667827,8.0622671 31.277504,11.948158 31.277504,16 Z M 15.998888,6.1265948 c -0.311974,1.73e-4 -0.620469,0.065708 -0.905588,0.1923588 -0.28512,0.126651 -0.540545,0.3116293 -0.749837,0.5429878 -0.209268,0.2313833 -0.367759,0.5040125 -0.465284,0.8003876 -0.0975,0.2963501 -0.131834,0.609831 -0.100792,0.9202762 l 0.863923,8.6565058 c 0.02903,0.340066 0.184632,0.656852 0.43601,0.887718 0.251401,0.230842 0.580284,0.358924 0.921584,0.358924 0.341298,0 0.67018,-0.128091 0.921583,-0.358924 0.251376,-0.230866 0.406982,-0.547652 0.436009,-0.887718 L 18.220405,8.5826052 C 18.251426,8.27216 18.217045,7.9586791 18.119574,7.662329 18.022071,7.3659539 17.863579,7.0933247 17.65431,6.8619414 17.44502,6.6305829 17.189593,6.4456047 16.904475,6.3189536 16.619355,6.1923025 16.310863,6.1267678 15.998888,6.1265948 Z m 0.0049,14.8101062 c -0.654656,0 -1.28248,0.260164 -1.745395,0.722982 -0.462892,0.462814 -0.722956,1.090764 -0.722956,1.745371 0,0.654606 0.260064,1.282554 0.722956,1.745369 0.462915,0.462817 1.090739,0.722982 1.745395,0.722982 0.654657,0 1.282482,-0.260165 1.745396,-0.722982 0.462891,-0.462815 0.722955,-1.090763 0.722955,-1.745369 0,-0.654607 -0.260064,-1.282557 -0.722955,-1.745371 -0.462914,-0.462818 -1.090739,-0.722982 -1.745396,-0.722982 z" />
  <defs
     id="defs9">
    <clipPath
       id="clip0_2_231">
      <rect
         width="16"
         height="16"
         fill="#ffffff"
         id="rect6"
         x="0"
         y="0" />
    </clipPath>
    <clipPath
       id="clip0_2_231-3">
      <rect
         width="16"
         height="16"
         fill="#ffffff"
         id="rect6-6"
         x="0"
         y="0" />
    </clipPath>
  </defs>
</svg>
