<?xml version="1.0" encoding="UTF-8" standalone="no"?>
<svg
   class="ionicon"
   viewBox="0 0 512 512"
   version="1.1"
   id="svg6"
   sodipodi:docname="logo-github.svg"
   inkscape:version="1.1.2 (0a00cf5339, 2022-02-04)"
   xmlns:inkscape="http://www.inkscape.org/namespaces/inkscape"
   xmlns:sodipodi="http://sodipodi.sourceforge.net/DTD/sodipodi-0.dtd"
   xmlns="http://www.w3.org/2000/svg"
   xmlns:svg="http://www.w3.org/2000/svg">
  <defs
     id="defs10" />
  <sodipodi:namedview
     id="namedview8"
     pagecolor="#ffffff"
     bordercolor="#666666"
     borderopacity="1.0"
     inkscape:pageshadow="2"
     inkscape:pageopacity="0.0"
     inkscape:pagecheckerboard="0"
     showgrid="false"
     showguides="true"
     inkscape:guide-bbox="true"
     inkscape:object-paths="true"
     inkscape:snap-intersection-paths="true"
     inkscape:snap-smooth-nodes="true"
     inkscape:snap-midpoints="true"
     inkscape:snap-object-midpoints="true"
     inkscape:snap-center="true"
     inkscape:snap-global="false"
     inkscape:zoom="1.3652344"
     inkscape:cx="256"
     inkscape:cy="256"
     inkscape:current-layer="svg6" />
  <title
     id="title2">Logo Github</title>
  <path
     id="path225"
     style="fill:#82828c;fill-rule:evenodd;fill-opacity:1"
     d="M 194.90454,28.350887 A 235.97852,235.97852 0 0 0 83.975645,95.291565 C 96.750106,95.061606 116.14211,97.49475 144.42008,107.6829 184.846,83.745628 231.06574,71.361085 278.04423,71.878416 297.81042,48.477194 313.6016,36.676919 324.8176,30.59235 A 235.97852,235.97852 0 0 0 194.90454,28.350887 Z m 159.90041,13.654202 c 13.07055,26.092531 11.81964,47.562079 11.09233,53.818377 22.16824,14.610904 39.07235,36.247734 47.05017,66.021364 28.14574,105.04135 -28.07043,144.86689 -85.67964,167.579 11.79326,5.90281 24.83728,20.27971 31.66629,45.76593 9.79676,36.56201 17.35217,66.19302 19.74552,75.1251 0.51233,1.91203 1.41522,3.77846 2.62842,5.43256 A 235.97852,235.97852 0 0 0 483.91802,195.21289 235.97852,235.97852 0 0 0 354.80495,42.005089 Z M 63.059699,121.17485 A 235.97852,235.97852 0 0 0 28.042534,317.36436 235.97852,235.97852 0 0 0 247.04317,491.68111 c 0.22673,-1.99591 0.0883,-4.00944 -0.40697,-5.85794 -1.75512,-6.5502 -6.5879,-23.63652 -12.83396,-46.47076 -8.2701,4.43322 -17.00878,7.93185 -26.05387,10.42867 -51.32974,13.75376 -73.69068,-23.01641 -73.69068,-23.01641 C 113.45357,398.45958 93.680346,394.6946 93.680346,394.6946 66.085075,384.60135 89.062147,377.93401 90.84857,377.45534 l 0.118854,-0.0318 c 27.434486,-4.79816 48.442826,17.39867 48.442826,17.39867 19.59318,19.76847 39.21351,21.53173 55.17219,17.25561 10.49566,-3.03845 20.23135,-8.25557 28.57269,-15.31343 -2.34099,-18.26422 1.34522,-32.14385 7.11642,-41.09366 C 169.23071,364.6231 100.65748,357.85036 72.575564,253.0472 64.565832,223.15447 68.384928,195.96487 80.30963,172.34644 76.593692,167.34855 64.988683,149.73309 63.059699,121.17485 Z" />
</svg>
