<?xml version="1.0" encoding="UTF-8" standalone="no"?>
<svg
   class="ionicon"
   viewBox="0 0 512 512"
   version="1.1"
   id="svg6"
   sodipodi:docname="logo-linkedin.svg"
   inkscape:version="1.1.2 (0a00cf5339, 2022-02-04)"
   xmlns:inkscape="http://www.inkscape.org/namespaces/inkscape"
   xmlns:sodipodi="http://sodipodi.sourceforge.net/DTD/sodipodi-0.dtd"
   xmlns="http://www.w3.org/2000/svg"
   xmlns:svg="http://www.w3.org/2000/svg">
  <defs
     id="defs10" />
  <sodipodi:namedview
     id="namedview8"
     pagecolor="#ffffff"
     bordercolor="#666666"
     borderopacity="1.0"
     inkscape:pageshadow="2"
     inkscape:pageopacity="0.0"
     inkscape:pagecheckerboard="0"
     showgrid="false"
     inkscape:zoom="1.3652344"
     inkscape:cx="256"
     inkscape:cy="256"
     inkscape:current-layer="svg6" />
  <title
     id="title2">Logo Linkedin</title>
  <path
     id="path1607"
     style="stroke-width:0.78942;fill:#82828c;fill-opacity:1"
     d="M 194.91902,28.068305 C 155.53441,38.621377 121.1601,58.539173 93.547886,84.782493 c 11.205494,4.979119 19.594144,15.190432 23.543774,28.658327 6.1482,22.99406 -4.90814,45.63991 -30.553607,52.5116 l -0.55277,0.14811 C 68.701982,170.73158 53.294958,165.18265 43.485594,153.55561 19.76495,202.70165 12.824764,260.2343 28.057002,317.08178 c 14.614917,54.54361 47.207345,99.45257 89.673338,130.12311 l -62.637747,-233.76725 77.092957,-20.657 64.22757,239.70054 -72.04637,19.30476 c 54.61503,36.68606 124.16112,50.5238 192.70373,32.15786 68.54262,-18.36594 121.85243,-65.12282 150.80741,-124.20139 l -66.80735,17.90098 -35.11801,-131.06218 c -8.41339,-31.3992 -25.38112,-49.84817 -53.27281,-42.37461 -21.30918,5.70977 -30.05679,23.50581 -31.90383,39.05083 -0.75028,5.60827 0.52498,12.62971 2.40463,19.64467 l 36.58246,136.52758 -77.09484,20.6575 -64.22757,-239.70053 77.09484,-20.6575 8.93886,33.36029 c 6.93842,-18.98202 18.30128,-46.67277 59.08178,-57.59987 50.60627,-13.55991 97.82638,9.54174 117.09606,81.45717 l 34.13561,127.44111 C 493.36294,298.50466 497.7314,246.42852 483.9325,194.93032 450.20123,69.043518 320.80581,-5.6629607 194.91902,28.068305 Z" />
</svg>
